<?xml version="1.0" encoding="UTF-8" standalone="no"?>
<!-- Created with Inkscape (http://www.inkscape.org/) -->

<svg
   xmlns:dc="http://purl.org/dc/elements/1.1/"
   xmlns:cc="http://creativecommons.org/ns#"
   xmlns:rdf="http://www.w3.org/1999/02/22-rdf-syntax-ns#"
   xmlns:svg="http://www.w3.org/2000/svg"
   xmlns="http://www.w3.org/2000/svg"
   xmlns:sodipodi="http://sodipodi.sourceforge.net/DTD/sodipodi-0.dtd"
   xmlns:inkscape="http://www.inkscape.org/namespaces/inkscape"
   version="1.1"
   id="svg2"
   xml:space="preserve"
   width="464.84799"
   height="188.976"
   viewBox="0 0 464.84799 188.976"
   sodipodi:docname="LOGO_UM+texte_test.svg"
   inkscape:version="0.92.1 r15371"><metadata
     id="metadata8"><rdf:RDF><cc:Work
         rdf:about=""><dc:format>image/svg+xml</dc:format><dc:type
           rdf:resource="http://purl.org/dc/dcmitype/StillImage" /><dc:title></dc:title></cc:Work></rdf:RDF></metadata><defs
     id="defs6"><clipPath
       clipPathUnits="userSpaceOnUse"
       id="clipPath18"><path
         d="M 0,141.732 H 348.636 V 0 H 0 Z"
         id="path16"
         inkscape:connector-curvature="0" /></clipPath></defs><sodipodi:namedview
     pagecolor="#ffffff"
     bordercolor="#666666"
     borderopacity="1"
     objecttolerance="10"
     gridtolerance="10"
     guidetolerance="10"
     inkscape:pageopacity="0"
     inkscape:pageshadow="2"
     inkscape:window-width="1916"
     inkscape:window-height="1157"
     id="namedview4"
     showgrid="false"
     inkscape:zoom="0.91857985"
     inkscape:cx="419.3974"
     inkscape:cy="192.96884"
     inkscape:window-x="0"
     inkscape:window-y="20"
     inkscape:window-maximized="0"
     inkscape:current-layer="g14" /><g
     id="g10"
     inkscape:groupmode="layer"
     inkscape:label="LOGO_UM+texte_rvb"
     transform="matrix(1.3333333,0,0,-1.3333333,0,188.976)"><g
       id="g12"><g
         id="g14"
         clip-path="url(#clipPath18)"><g
           id="g20"
           transform="translate(145.1245,55.3418)"><path
             d="m 0,0 v 8.905 c 0,4.759 -1.732,6.481 -6.479,6.481 h -5.023 V -7.287 h 5 C -1.669,-7.287 0,-4.821 0,0 m -3.237,8.099 v -7.29 c 0,-3.339 0.19,-5.668 -3.242,-5.668 h -1.783 v 17.816 h 1.721 c 3.214,0 3.304,-1.758 3.304,-4.858 M 12.714,3.238 V 5.669 H 8.665 v 7.288 h 5.669 v 2.429 H 5.428 V -7.287 h 8.906 v 2.428 H 8.665 V 3.238 Z M 32.412,-7.287 h 2.429 l 3.238,17.89 v -17.89 h 3.241 v 22.673 h -4.478 l -3.216,-17.36 -3.212,17.36 H 25.933 V -7.287 h 3.241 v 17.89 z m 20.585,22.901 c -4.645,0 -6.252,-2.77 -6.252,-7.39 V 0 c 0,-4.618 1.607,-7.516 6.252,-7.516 4.606,0 6.25,2.959 6.25,7.516 v 8.224 c 0,4.555 -1.644,7.39 -6.25,7.39 m 0,-2.657 c 2.43,0 3.011,-1.493 3.011,-3.923 v -9.843 c 0,-2.432 -0.581,-4.05 -3.011,-4.05 -2.43,0 -3.012,1.618 -3.012,4.05 v 9.843 c 0,2.43 0.582,3.923 3.012,3.923 m 20.71,-20.244 h 2.302 V 15.386 H 72.771 V 1.366 l -5.668,14.02 H 64.674 V -7.287 H 67.91 V 7.794 Z M 91.508,15.386 H 80.169 v -2.884 h 4.052 V -7.287 h 3.238 v 19.789 h 4.049 z m 15.498,-6.481 c 0,4.052 -1.619,6.481 -5.67,6.481 H 95.668 V -7.287 h 3.241 V 3.238 h 2.427 c 3.658,0 5.67,1.963 5.67,5.667 m -3.237,0 c 0,-2.703 -1.319,-3.236 -4.052,-3.236 h -0.808 v 7.288 h 0.808 c 3.213,0 4.052,-0.897 4.052,-4.052 m 14.953,-5.667 v 2.431 h -4.05 v 7.288 h 5.668 v 2.429 h -8.908 V -7.287 h 8.908 v 2.428 h -5.668 v 8.097 z m 6.196,-10.525 h 8.907 v 2.428 h -5.669 v 20.245 h -3.238 z m 13.005,0 h 8.909 v 2.428 h -5.67 v 20.245 h -3.239 z m 13.159,0 h 3.237 v 22.675 h -3.237 z m 16.584,10.525 v 2.431 h -4.048 v 7.288 h 5.667 v 2.429 h -8.906 V -7.287 h 8.906 v 2.428 h -5.667 v 8.097 z m 17.537,6.074 c 0,4.505 -2.671,6.074 -7.289,6.074 h -4.049 V -7.287 h 3.239 V 3.238 h 2.429 l 3.265,-10.525 h 3.214 l -3.644,11.336 c 1.885,0.682 2.835,2.594 2.835,5.263 m -3.24,0 c 0,-2.642 -1.43,-3.643 -4.049,-3.643 h -0.81 v 7.288 h 0.81 c 2.619,0 4.049,-0.999 4.049,-3.645"
             style="fill:#ff5660;fill-opacity:1;fill-rule:nonzero;stroke:none"
             id="path22"
             inkscape:connector-curvature="0" /></g><g
           id="g24"
           transform="translate(146.4048,87.249)"><path
             d="M 0,0 V 14.576 H -3.241 V 0 c 0,-2.999 -0.239,-5.668 -3.239,-5.668 -2.999,0 -3.241,2.669 -3.241,5.668 v 14.576 h -3.237 V 0 c 0,-5 1.442,-8.339 6.478,-8.339 C -1.444,-8.339 0,-5 0,0 m 14.687,-8.098 h 2.302 V 14.576 H 13.75 V 0.557 L 8.083,14.576 H 5.653 V -8.098 H 8.891 V 6.985 Z m 8.287,0 h 3.238 V 14.576 H 22.974 Z M 38.129,2.428 37.268,-3.24 36.433,2.428 34.041,14.576 H 30.802 L 35.661,-8.098 H 38.9 l 4.859,22.674 h -3.238 z m 17.281,0 v 2.431 h -4.049 v 7.287 h 5.668 v 2.43 H 48.121 V -8.098 h 8.908 v 2.43 h -5.668 v 8.096 z m 17.536,6.075 c 0,4.505 -2.673,6.073 -7.288,6.073 H 61.606 V -8.098 h 3.242 V 2.428 h 2.43 l 3.265,-10.526 h 3.213 L 70.109,3.239 c 1.888,0.683 2.837,2.594 2.837,5.264 m -3.241,0 c 0,-2.644 -1.428,-3.644 -4.047,-3.644 h -0.81 v 7.287 h 0.81 c 2.619,0 4.047,-0.999 4.047,-3.643 M 86.56,8.098 89.798,8.907 c -0.291,3.684 -2.469,5.897 -6.48,5.897 -3.401,0 -5.681,-2.1 -5.681,-5.466 0,-2.403 1.051,-4.201 2.444,-5.29 l 4.05,-3.24 c 1.175,-0.948 2.429,-2.01 2.429,-4.048 0,-1.62 -0.811,-2.428 -2.429,-2.428 -2.457,0 -3.128,2.516 -3.241,4.858 l -3.239,-0.81 c 0.24,-3.962 2.24,-6.707 6.48,-6.707 3.4,0 5.667,1.937 5.667,5.303 0,2.898 -1.584,4.92 -3.238,6.263 l -4.052,3.239 c -0.885,0.708 -1.618,1.796 -1.618,3.201 0,1.544 0.861,2.467 2.428,2.467 2.291,0 3.102,-1.897 3.242,-4.048 m 8.346,-16.196 h 3.241 v 22.674 h -3.241 z m 18.966,22.674 h -11.339 v -2.884 h 4.053 v -19.79 h 3.237 v 19.79 h 4.049 z m 9.423,1.518 3.241,4.86 h -3.241 l -1.618,-4.86 z m 2.027,-13.666 v 2.431 h -4.05 v 7.287 h 5.668 v 2.43 h -8.908 V -8.098 h 8.908 v 2.43 h -5.668 v 8.096 z"
             style="fill:#ff5660;fill-opacity:1;fill-rule:nonzero;stroke:none"
             id="path26"
             inkscape:connector-curvature="0" /><flowRoot
             xml:space="preserve"
             id="flowRoot412"
             style="fill:black;stroke:none;stroke-opacity:1;stroke-width:1px;stroke-linejoin:miter;stroke-linecap:butt;fill-opacity:1;font-family:Sans;font-style:normal;font-weight:normal;font-size:10px;line-height:125%;letter-spacing:0px;word-spacing:0px;-inkscape-font-specification:Sans;font-stretch:normal;font-variant:normal;text-anchor:start;text-align:start;writing-mode:lr"><flowRegion
               id="flowRegion414"><rect
                 id="rect416"
                 width="189.42284"
                 height="143.70009"
                 x="170.916"
                 y="-156.12193" /></flowRegion><flowPara
               id="flowPara418"></flowPara></flowRoot></g><g
           id="g28"
           transform="translate(120.6206,70.9453)"><path
             d="m 0,0 -2.672,-3.713 2.078,-4.072 -3.217,-3.25 1.413,-4.35 -3.69,-2.701 0.709,-4.518 -4.068,-2.087 -0.008,-4.573 -4.344,-1.427 -0.719,-4.516 -4.513,-0.732 -1.414,-4.35 -4.573,-0.022 -2.074,-4.074 -4.519,0.696 -2.692,-3.7 -4.353,1.401 -3.239,-3.229 -4.08,2.065 -3.703,-2.682 -3.711,2.67 -4.072,-2.078 -3.25,3.217 -4.35,-1.411 -2.701,3.69 -4.517,-0.711 -2.088,4.068 -4.572,0.008 -1.428,4.344 -4.516,0.721 -0.734,4.511 -4.35,1.414 -0.021,4.573 -4.075,2.076 0.696,4.519 -3.697,2.69 1.398,4.353 -3.229,3.241 2.067,4.08 -2.684,3.703 2.672,3.711 -2.078,4.073 3.217,3.249 -1.412,4.35 3.689,2.702 -0.709,4.516 4.069,2.089 0.007,4.573 4.344,1.427 0.719,4.516 4.514,0.733 1.414,4.349 4.572,0.022 2.074,4.074 4.52,-0.695 2.691,3.697 4.354,-1.398 3.238,3.228 4.08,-2.065 3.703,2.682 3.711,-2.671 4.074,2.078 3.248,-3.217 4.35,1.412 2.701,-3.689 4.518,0.709 2.087,-4.069 4.575,-0.007 1.425,-4.344 4.516,-0.72 0.734,-4.513 4.35,-1.414 0.022,-4.572 4.074,-2.076 -0.696,-4.52 3.698,-2.689 -1.399,-4.354 3.229,-3.238 -2.067,-4.082 z"
             style="fill:#ff5660;fill-opacity:1;fill-rule:nonzero;stroke:none"
             id="path30"
             inkscape:connector-curvature="0" /></g><g
           id="g32"
           transform="translate(94.1304,57.043)"><path
             d="m 0,0 -12.383,32.874 c -0.488,1.292 -1.728,2.147 -3.109,2.147 -1.383,0 -2.621,-0.855 -3.11,-2.147 l -4.816,-12.741 -3.551,-9.403 -0.256,-0.667 v -0.004 c 0,0 -1.689,-4.475 -1.705,-4.526 -1.552,-4.791 -5.049,-6.074 -7.644,-5.234 -0.971,0.312 -2.502,1.131 -1.91,3.099 l 7.142,18.898 3.403,-8.997 3.585,9.314 -3.876,10.261 c -0.491,1.292 -1.729,2.147 -3.112,2.147 -1.383,0 -2.621,-0.855 -3.109,-2.147 L -44.738,5.656 c -0.02,-0.052 -0.039,-0.105 -0.055,-0.158 -1.607,-5.008 0.99,-9.853 6.178,-11.527 5.187,-1.67 11.924,0.447 15.181,7.402 l 7.942,20.923 9.273,-24.646 c 0.502,-1.332 1.766,-2.15 3.11,-2.15 0.39,0 0.787,0.068 1.173,0.215 C -0.217,-3.637 0.648,-1.717 0,0"
             style="fill:#ffffff;fill-opacity:1;fill-rule:nonzero;stroke:none"
             id="path34"
             inkscape:connector-curvature="0" /></g><g
           id="g36"
           transform="translate(61.0464,97.7656)"><path
             d="m 0,0 1.414,-4.13 c 0.059,0.004 0.117,0.005 0.178,0.007 z"
             style="fill:#ffffff;fill-opacity:1;fill-rule:nonzero;stroke:none"
             id="path38"
             inkscape:connector-curvature="0" /></g><g
           id="g40"
           transform="translate(61.0464,97.7656)"><path
             d="m 0,0 1.414,-4.13 c 0.059,0.004 0.117,0.005 0.178,0.007 z"
             style="fill:none;stroke:#ffffff;stroke-width:0.085;stroke-linecap:butt;stroke-linejoin:miter;stroke-miterlimit:10;stroke-dasharray:none;stroke-opacity:1"
             id="path42"
             inkscape:connector-curvature="0" /></g><g
           id="g44"
           transform="translate(71.0288,82.4902)"><path
             d="M 0,0 -0.164,17.004 -0.611,-0.053 -0.316,-0.834 Z"
             style="fill:#ffffff;fill-opacity:1;fill-rule:nonzero;stroke:none"
             id="path46"
             inkscape:connector-curvature="0" /></g><g
           id="g48"
           transform="translate(71.0288,82.4902)"><path
             d="M 0,0 -0.164,17.004 -0.611,-0.053 -0.316,-0.834 Z"
             style="fill:none;stroke:#ffffff;stroke-width:0.085;stroke-linecap:butt;stroke-linejoin:miter;stroke-miterlimit:10;stroke-dasharray:none;stroke-opacity:1"
             id="path50"
             inkscape:connector-curvature="0" /></g><g
           id="g52"
           transform="translate(92.8433,89.248)"><path
             d="m 0,0 -7.02,-5.662 0.135,-0.357 z"
             style="fill:#ffffff;fill-opacity:1;fill-rule:nonzero;stroke:none"
             id="path54"
             inkscape:connector-curvature="0" /></g><g
           id="g56"
           transform="translate(92.8433,89.248)"><path
             d="m 0,0 -7.02,-5.662 0.135,-0.357 z"
             style="fill:none;stroke:#ffffff;stroke-width:0.085;stroke-linecap:butt;stroke-linejoin:miter;stroke-miterlimit:10;stroke-dasharray:none;stroke-opacity:1"
             id="path58"
             inkscape:connector-curvature="0" /></g><g
           id="g60"
           transform="translate(97.8335,60.9824)"><path
             d="M 0,0 -4.09,1.578 -4.012,1.373 Z"
             style="fill:#ffffff;fill-opacity:1;fill-rule:nonzero;stroke:none"
             id="path62"
             inkscape:connector-curvature="0" /></g><g
           id="g64"
           transform="translate(97.8335,60.9824)"><path
             d="M 0,0 -4.09,1.578 -4.012,1.373 Z"
             style="fill:none;stroke:#ffffff;stroke-width:0.085;stroke-linecap:butt;stroke-linejoin:miter;stroke-miterlimit:10;stroke-dasharray:none;stroke-opacity:1"
             id="path66"
             inkscape:connector-curvature="0" /></g><g
           id="g68"
           transform="translate(42.1694,70.7988)"><path
             d="M 0,0 8.525,-0.174 8.658,0.174 Z"
             style="fill:#ffffff;fill-opacity:1;fill-rule:nonzero;stroke:none"
             id="path70"
             inkscape:connector-curvature="0" /></g><g
           id="g72"
           transform="translate(42.1694,70.7988)"><path
             d="M 0,0 8.525,-0.174 8.658,0.174 Z"
             style="fill:none;stroke:#ffffff;stroke-width:0.085;stroke-linecap:butt;stroke-linejoin:miter;stroke-miterlimit:10;stroke-dasharray:none;stroke-opacity:1"
             id="path74"
             inkscape:connector-curvature="0" /></g><g
           id="g76"
           transform="translate(42.6011,75.7656)"><path
             d="M 0,0 9.348,-1.824 9.48,-1.471 Z"
             style="fill:#ffffff;fill-opacity:1;fill-rule:nonzero;stroke:none"
             id="path78"
             inkscape:connector-curvature="0" /></g><g
           id="g80"
           transform="translate(42.6011,75.7656)"><path
             d="M 0,0 9.348,-1.824 9.48,-1.471 Z"
             style="fill:none;stroke:#ffffff;stroke-width:0.085;stroke-linecap:butt;stroke-linejoin:miter;stroke-miterlimit:10;stroke-dasharray:none;stroke-opacity:1"
             id="path82"
             inkscape:connector-curvature="0" /></g><g
           id="g84"
           transform="translate(42.6011,65.8301)"><path
             d="M 0,0 6.674,1.035 6.783,1.324 Z"
             style="fill:#ffffff;fill-opacity:1;fill-rule:nonzero;stroke:none"
             id="path86"
             inkscape:connector-curvature="0" /></g><g
           id="g88"
           transform="translate(42.6011,65.8301)"><path
             d="M 0,0 6.674,1.035 6.783,1.324 Z"
             style="fill:none;stroke:#ffffff;stroke-width:0.085;stroke-linecap:butt;stroke-linejoin:miter;stroke-miterlimit:10;stroke-dasharray:none;stroke-opacity:1"
             id="path90"
             inkscape:connector-curvature="0" /></g><g
           id="g92"
           transform="translate(43.896,60.9824)"><path
             d="M 0,0 3.719,1.273 C 3.732,1.332 3.746,1.391 3.762,1.451 Z"
             style="fill:#ffffff;fill-opacity:1;fill-rule:nonzero;stroke:none"
             id="path94"
             inkscape:connector-curvature="0" /></g><g
           id="g96"
           transform="translate(43.896,60.9824)"><path
             d="M 0,0 3.719,1.273 C 3.732,1.332 3.746,1.391 3.762,1.451 Z"
             style="fill:none;stroke:#ffffff;stroke-width:0.085;stroke-linecap:butt;stroke-linejoin:miter;stroke-miterlimit:10;stroke-dasharray:none;stroke-opacity:1"
             id="path98"
             inkscape:connector-curvature="0" /></g><g
           id="g100"
           transform="translate(97.8335,80.6172)"><path
             d="M 0,0 -9.646,-3.305 -9.508,-3.67 Z"
             style="fill:#ffffff;fill-opacity:1;fill-rule:nonzero;stroke:none"
             id="path102"
             inkscape:connector-curvature="0" /></g><g
           id="g104"
           transform="translate(97.8335,80.6172)"><path
             d="M 0,0 -9.646,-3.305 -9.508,-3.67 Z"
             style="fill:none;stroke:#ffffff;stroke-width:0.085;stroke-linecap:butt;stroke-linejoin:miter;stroke-miterlimit:10;stroke-dasharray:none;stroke-opacity:1"
             id="path106"
             inkscape:connector-curvature="0" /></g><g
           id="g108"
           transform="translate(80.6812,97.7676)"><path
             d="m 0,0 -1.598,-4.142 c 0.057,-0.004 0.116,-0.012 0.172,-0.02 z"
             style="fill:#ffffff;fill-opacity:1;fill-rule:nonzero;stroke:none"
             id="path110"
             inkscape:connector-curvature="0" /></g><g
           id="g112"
           transform="translate(80.6812,97.7676)"><path
             d="m 0,0 -1.598,-4.142 c 0.057,-0.004 0.116,-0.012 0.172,-0.02 z"
             style="fill:none;stroke:#ffffff;stroke-width:0.085;stroke-linecap:butt;stroke-linejoin:miter;stroke-miterlimit:10;stroke-dasharray:none;stroke-opacity:1"
             id="path114"
             inkscape:connector-curvature="0" /></g><g
           id="g116"
           transform="translate(43.896,80.6152)"><path
             d="m 0,0 9.229,-3.561 0.134,0.357 z"
             style="fill:#ffffff;fill-opacity:1;fill-rule:nonzero;stroke:none"
             id="path118"
             inkscape:connector-curvature="0" /></g><g
           id="g120"
           transform="translate(43.896,80.6152)"><path
             d="m 0,0 9.229,-3.561 0.134,0.357 z"
             style="fill:none;stroke:#ffffff;stroke-width:0.085;stroke-linecap:butt;stroke-linejoin:miter;stroke-miterlimit:10;stroke-dasharray:none;stroke-opacity:1"
             id="path122"
             inkscape:connector-curvature="0" /></g><g
           id="g124"
           transform="translate(85.2222,95.6465)"><path
             d="m 0,0 -2.518,-4.162 c 0.041,-0.061 0.079,-0.123 0.116,-0.184 z"
             style="fill:#ffffff;fill-opacity:1;fill-rule:nonzero;stroke:none"
             id="path126"
             inkscape:connector-curvature="0" /></g><g
           id="g128"
           transform="translate(85.2222,95.6465)"><path
             d="m 0,0 -2.518,-4.162 c 0.041,-0.061 0.079,-0.123 0.116,-0.184 z"
             style="fill:none;stroke:#ffffff;stroke-width:0.085;stroke-linecap:butt;stroke-linejoin:miter;stroke-miterlimit:10;stroke-dasharray:none;stroke-opacity:1"
             id="path130"
             inkscape:connector-curvature="0" /></g><g
           id="g132"
           transform="translate(89.3159,92.7764)"><path
             d="M 0,0 -4.859,-5.558 -4.74,-5.875 Z"
             style="fill:#ffffff;fill-opacity:1;fill-rule:nonzero;stroke:none"
             id="path134"
             inkscape:connector-curvature="0" /></g><g
           id="g136"
           transform="translate(89.3159,92.7764)"><path
             d="M 0,0 -4.859,-5.558 -4.74,-5.875 Z"
             style="fill:none;stroke:#ffffff;stroke-width:0.085;stroke-linecap:butt;stroke-linejoin:miter;stroke-miterlimit:10;stroke-dasharray:none;stroke-opacity:1"
             id="path138"
             inkscape:connector-curvature="0" /></g><g
           id="g140"
           transform="translate(99.1284,75.7695)"><path
             d="M 0,0 -9.787,-1.52 -9.65,-1.887 Z"
             style="fill:#ffffff;fill-opacity:1;fill-rule:nonzero;stroke:none"
             id="path142"
             inkscape:connector-curvature="0" /></g><g
           id="g144"
           transform="translate(99.1284,75.7695)"><path
             d="M 0,0 -9.787,-1.52 -9.65,-1.887 Z"
             style="fill:none;stroke:#ffffff;stroke-width:0.085;stroke-linecap:butt;stroke-linejoin:miter;stroke-miterlimit:10;stroke-dasharray:none;stroke-opacity:1"
             id="path146"
             inkscape:connector-curvature="0" /></g><g
           id="g148"
           transform="translate(99.1284,65.8301)"><path
             d="M 0,0 -7.141,1.395 -7.027,1.09 Z"
             style="fill:#ffffff;fill-opacity:1;fill-rule:nonzero;stroke:none"
             id="path150"
             inkscape:connector-curvature="0" /></g><g
           id="g152"
           transform="translate(99.1284,65.8301)"><path
             d="M 0,0 -7.141,1.395 -7.027,1.09 Z"
             style="fill:none;stroke:#ffffff;stroke-width:0.085;stroke-linecap:butt;stroke-linejoin:miter;stroke-miterlimit:10;stroke-dasharray:none;stroke-opacity:1"
             id="path154"
             inkscape:connector-curvature="0" /></g><g
           id="g156"
           transform="translate(99.5601,70.7988)"><path
             d="m 0,0 -8.986,0.18 0.134,-0.358 z"
             style="fill:#ffffff;fill-opacity:1;fill-rule:nonzero;stroke:none"
             id="path158"
             inkscape:connector-curvature="0" /></g><g
           id="g160"
           transform="translate(99.5601,70.7988)"><path
             d="m 0,0 -8.986,0.18 0.134,-0.358 z"
             style="fill:none;stroke:#ffffff;stroke-width:0.085;stroke-linecap:butt;stroke-linejoin:miter;stroke-miterlimit:10;stroke-dasharray:none;stroke-opacity:1"
             id="path162"
             inkscape:connector-curvature="0" /></g><g
           id="g164"
           transform="translate(95.7124,85.1572)"><path
             d="m 0,0 -8.674,-4.795 0.139,-0.368 z"
             style="fill:#ffffff;fill-opacity:1;fill-rule:nonzero;stroke:none"
             id="path166"
             inkscape:connector-curvature="0" /></g><g
           id="g168"
           transform="translate(95.7124,85.1572)"><path
             d="m 0,0 -8.674,-4.795 0.139,-0.368 z"
             style="fill:none;stroke:#ffffff;stroke-width:0.085;stroke-linecap:butt;stroke-linejoin:miter;stroke-miterlimit:10;stroke-dasharray:none;stroke-opacity:1"
             id="path170"
             inkscape:connector-curvature="0" /></g><g
           id="g172"
           transform="translate(48.8862,89.2471)"><path
             d="M 0,0 6.65,-5.813 6.779,-5.47 Z"
             style="fill:#ffffff;fill-opacity:1;fill-rule:nonzero;stroke:none"
             id="path174"
             inkscape:connector-curvature="0" /></g><g
           id="g176"
           transform="translate(48.8862,89.2471)"><path
             d="M 0,0 6.65,-5.813 6.779,-5.47 Z"
             style="fill:none;stroke:#ffffff;stroke-width:0.085;stroke-linecap:butt;stroke-linejoin:miter;stroke-miterlimit:10;stroke-dasharray:none;stroke-opacity:1"
             id="path178"
             inkscape:connector-curvature="0" /></g><g
           id="g180"
           transform="translate(56.5112,95.6484)"><path
             d="m 0,0 2.262,-4.094 c 0.037,0.054 0.076,0.108 0.117,0.159 z"
             style="fill:#ffffff;fill-opacity:1;fill-rule:nonzero;stroke:none"
             id="path182"
             inkscape:connector-curvature="0" /></g><g
           id="g184"
           transform="translate(56.5112,95.6484)"><path
             d="m 0,0 2.262,-4.094 c 0.037,0.054 0.076,0.108 0.117,0.159 z"
             style="fill:none;stroke:#ffffff;stroke-width:0.085;stroke-linecap:butt;stroke-linejoin:miter;stroke-miterlimit:10;stroke-dasharray:none;stroke-opacity:1"
             id="path186"
             inkscape:connector-curvature="0" /></g><g
           id="g188"
           transform="translate(52.4136,92.7754)"><path
             d="m 0,0 4.531,-5.615 0.115,0.303 z"
             style="fill:#ffffff;fill-opacity:1;fill-rule:nonzero;stroke:none"
             id="path190"
             inkscape:connector-curvature="0" /></g><g
           id="g192"
           transform="translate(52.4136,92.7754)"><path
             d="m 0,0 4.531,-5.615 0.115,0.303 z"
             style="fill:none;stroke:#ffffff;stroke-width:0.085;stroke-linecap:butt;stroke-linejoin:miter;stroke-miterlimit:10;stroke-dasharray:none;stroke-opacity:1"
             id="path194"
             inkscape:connector-curvature="0" /></g><g
           id="g196"
           transform="translate(67.7788,89.4238)"><path
             d="m 0,0 -1.881,9.64 1.254,-8.083 c 0.084,-0.162 0.162,-0.33 0.229,-0.504 z"
             style="fill:#ffffff;fill-opacity:1;fill-rule:nonzero;stroke:none"
             id="path198"
             inkscape:connector-curvature="0" /></g><g
           id="g200"
           transform="translate(67.7788,89.4238)"><path
             d="m 0,0 -1.881,9.64 1.254,-8.083 c 0.084,-0.162 0.162,-0.33 0.229,-0.504 z"
             style="fill:none;stroke:#ffffff;stroke-width:0.085;stroke-linecap:butt;stroke-linejoin:miter;stroke-miterlimit:10;stroke-dasharray:none;stroke-opacity:1"
             id="path202"
             inkscape:connector-curvature="0" /></g><g
           id="g204"
           transform="translate(46.0171,85.1563)"><path
             d="M 0,0 8.279,-5.004 8.412,-4.65 Z"
             style="fill:#ffffff;fill-opacity:1;fill-rule:nonzero;stroke:none"
             id="path206"
             inkscape:connector-curvature="0" /></g><g
           id="g208"
           transform="translate(46.0171,85.1563)"><path
             d="M 0,0 8.279,-5.004 8.412,-4.65 Z"
             style="fill:none;stroke:#ffffff;stroke-width:0.085;stroke-linecap:butt;stroke-linejoin:miter;stroke-miterlimit:10;stroke-dasharray:none;stroke-opacity:1"
             id="path210"
             inkscape:connector-curvature="0" /></g><g
           id="g212"
           transform="translate(73.9507,89.4238)"><path
             d="M 0,0 1.881,9.64 0.627,1.557 C 0.543,1.395 0.465,1.227 0.398,1.053 Z"
             style="fill:#ffffff;fill-opacity:1;fill-rule:nonzero;stroke:none"
             id="path214"
             inkscape:connector-curvature="0" /></g><g
           id="g216"
           transform="translate(73.9507,89.4238)"><path
             d="M 0,0 1.881,9.64 0.627,1.557 C 0.543,1.395 0.465,1.227 0.398,1.053 Z"
             style="fill:none;stroke:#ffffff;stroke-width:0.085;stroke-linecap:butt;stroke-linejoin:miter;stroke-miterlimit:10;stroke-dasharray:none;stroke-opacity:1"
             id="path218"
             inkscape:connector-curvature="0" /></g><g
           id="g220"
           transform="translate(70.8647,114.0986)"><path
             d="m 0,0 c -23.838,0 -43.232,-19.394 -43.232,-43.233 0,-23.838 19.394,-43.231 43.232,-43.231 23.838,0 43.232,19.393 43.232,43.231 C 43.232,-19.394 23.838,0 0,0 m 0,-86.78 c -24.012,0 -43.549,19.535 -43.549,43.547 0,24.013 19.537,43.55 43.549,43.55 24.014,0 43.549,-19.537 43.549,-43.55 C 43.549,-67.245 24.014,-86.78 0,-86.78"
             style="fill:#ffffff;fill-opacity:1;fill-rule:nonzero;stroke:none"
             id="path222"
             inkscape:connector-curvature="0" /></g><g
           id="g224"
           transform="translate(70.8647,114.0986)"><path
             d="m 0,0 c -23.838,0 -43.232,-19.394 -43.232,-43.233 0,-23.838 19.394,-43.231 43.232,-43.231 23.838,0 43.232,19.393 43.232,43.231 C 43.232,-19.394 23.838,0 0,0 Z m 0,-86.78 c -24.012,0 -43.549,19.535 -43.549,43.547 0,24.013 19.537,43.55 43.549,43.55 24.014,0 43.549,-19.537 43.549,-43.55 C 43.549,-67.245 24.014,-86.78 0,-86.78 Z"
             style="fill:none;stroke:#ffffff;stroke-width:0.085;stroke-linecap:butt;stroke-linejoin:miter;stroke-miterlimit:10;stroke-dasharray:none;stroke-opacity:1"
             id="path226"
             inkscape:connector-curvature="0" /></g><g
           id="g228"
           transform="translate(70.8647,100.9219)"><path
             d="m 0,0 c -16.572,0 -30.055,-13.482 -30.055,-30.057 0,-16.572 13.483,-30.054 30.055,-30.054 16.572,0 30.057,13.482 30.057,30.054 C 30.057,-13.482 16.572,0 0,0 m 0,-60.428 c -16.746,0 -30.373,13.625 -30.373,30.371 0,16.748 13.627,30.374 30.373,30.374 16.748,0 30.373,-13.626 30.373,-30.374 0,-16.746 -13.625,-30.371 -30.373,-30.371"
             style="fill:#ffffff;fill-opacity:1;fill-rule:nonzero;stroke:none"
             id="path230"
             inkscape:connector-curvature="0" /></g><g
           id="g232"
           transform="translate(70.8647,100.9219)"><path
             d="m 0,0 c -16.572,0 -30.055,-13.482 -30.055,-30.057 0,-16.572 13.483,-30.054 30.055,-30.054 16.572,0 30.057,13.482 30.057,30.054 C 30.057,-13.482 16.572,0 0,0 Z m 0,-60.428 c -16.746,0 -30.373,13.625 -30.373,30.371 0,16.748 13.627,30.374 30.373,30.374 16.748,0 30.373,-13.626 30.373,-30.374 0,-16.746 -13.625,-30.371 -30.373,-30.371 z"
             style="fill:none;stroke:#ffffff;stroke-width:0.085;stroke-linecap:butt;stroke-linejoin:miter;stroke-miterlimit:10;stroke-dasharray:none;stroke-opacity:1"
             id="path234"
             inkscape:connector-curvature="0" /></g><g
           id="g236"
           transform="translate(37.2437,78.9883)"><path
             d="M 0,0 C 0.582,-0.141 0.988,0.006 1.115,0.533 1.24,1.051 0.943,1.365 0.361,1.506 L -4.582,2.695 -4.42,3.369 0.486,2.189 C 1.467,1.953 2.014,1.343 1.773,0.345 1.535,-0.644 0.771,-0.938 -0.209,-0.703 l -4.906,1.181 0.172,0.711 z"
             style="fill:#ffffff;fill-opacity:1;fill-rule:nonzero;stroke:none"
             id="path238"
             inkscape:connector-curvature="0" /></g><g
           id="g240"
           transform="translate(37.2437,78.9883)"><path
             d="M 0,0 C 0.582,-0.141 0.988,0.006 1.115,0.533 1.24,1.051 0.943,1.365 0.361,1.506 L -4.582,2.695 -4.42,3.369 0.486,2.189 C 1.467,1.953 2.014,1.343 1.773,0.345 1.535,-0.644 0.771,-0.938 -0.209,-0.703 l -4.906,1.181 0.172,0.711 z"
             style="fill:none;stroke:#ffffff;stroke-width:0.085;stroke-linecap:butt;stroke-linejoin:miter;stroke-miterlimit:10;stroke-dasharray:none;stroke-opacity:1"
             id="path242"
             inkscape:connector-curvature="0" /></g><g
           id="g244"
           transform="translate(42.3472,87.9512)"><path
             d="M 0,0 -0.346,-0.566 -6.021,2.896 -5.531,3.699 -0.627,2.51 -4.73,5.014 -4.389,5.572 1.287,2.109 0.887,1.452 -4.59,2.801 Z"
             style="fill:#ffffff;fill-opacity:1;fill-rule:nonzero;stroke:none"
             id="path246"
             inkscape:connector-curvature="0" /></g><g
           id="g248"
           transform="translate(42.3472,87.9512)"><path
             d="M 0,0 -0.346,-0.566 -6.021,2.896 -5.531,3.699 -0.627,2.51 -4.73,5.014 -4.389,5.572 1.287,2.109 0.887,1.452 -4.59,2.801 Z"
             style="fill:none;stroke:#ffffff;stroke-width:0.085;stroke-linecap:butt;stroke-linejoin:miter;stroke-miterlimit:10;stroke-dasharray:none;stroke-opacity:1"
             id="path250"
             inkscape:connector-curvature="0" /></g><g
           id="g252"
           transform="translate(44.3726,100.9248)"><path
             d="M 0,0 4.51,-4.888 3.965,-5.39 -0.545,-0.502 Z"
             style="fill:#ffffff;fill-opacity:1;fill-rule:nonzero;stroke:none"
             id="path254"
             inkscape:connector-curvature="0" /></g><g
           id="g256"
           transform="translate(44.3726,100.9248)"><path
             d="M 0,0 4.51,-4.888 3.965,-5.39 -0.545,-0.502 Z"
             style="fill:none;stroke:#ffffff;stroke-width:0.085;stroke-linecap:butt;stroke-linejoin:miter;stroke-miterlimit:10;stroke-dasharray:none;stroke-opacity:1"
             id="path258"
             inkscape:connector-curvature="0" /></g><g
           id="g260"
           transform="translate(52.2202,106.4756)"><path
             d="M 0,0 3.566,-4.685 1.928,0.969 2.539,1.275 4.414,-5.227 3.438,-5.718 -0.67,-0.337 Z"
             style="fill:#ffffff;fill-opacity:1;fill-rule:nonzero;stroke:none"
             id="path262"
             inkscape:connector-curvature="0" /></g><g
           id="g264"
           transform="translate(52.2202,106.4756)"><path
             d="M 0,0 3.566,-4.685 1.928,0.969 2.539,1.275 4.414,-5.227 3.438,-5.718 -0.67,-0.337 Z"
             style="fill:none;stroke:#ffffff;stroke-width:0.085;stroke-linecap:butt;stroke-linejoin:miter;stroke-miterlimit:10;stroke-dasharray:none;stroke-opacity:1"
             id="path266"
             inkscape:connector-curvature="0" /></g><g
           id="g268"
           transform="translate(66.1655,107.9014)"><path
             d="M 0,0 0.104,-0.657 -1.502,-0.91 -1.133,-3.247 0.838,-2.937 0.943,-3.603 -1.76,-4.028 -2.795,2.541 -0.092,2.967 0.012,2.3 -1.959,1.99 -1.605,-0.253 Z"
             style="fill:#ffffff;fill-opacity:1;fill-rule:nonzero;stroke:none"
             id="path270"
             inkscape:connector-curvature="0" /></g><g
           id="g272"
           transform="translate(66.1655,107.9014)"><path
             d="M 0,0 0.104,-0.657 -1.502,-0.91 -1.133,-3.247 0.838,-2.937 0.943,-3.603 -1.76,-4.028 -2.795,2.541 -0.092,2.967 0.012,2.3 -1.959,1.99 -1.605,-0.253 Z"
             style="fill:none;stroke:#ffffff;stroke-width:0.085;stroke-linecap:butt;stroke-linejoin:miter;stroke-miterlimit:10;stroke-dasharray:none;stroke-opacity:1"
             id="path274"
             inkscape:connector-curvature="0" /></g><g
           id="g276"
           transform="translate(75.9995,107.6357)"><path
             d="m 0,0 c 0.582,-0.085 0.957,0.052 1.062,0.766 l 0.094,0.63 C 1.242,1.987 1.072,2.33 0.527,2.41 L -0.187,2.515 -0.545,0.08 Z M 0.645,3.074 C 1.678,2.922 2.033,2.333 1.889,1.354 L 1.811,0.819 C 1.703,0.095 1.383,-0.318 0.793,-0.415 1.369,-0.681 1.523,-1.203 1.418,-1.908 L 1.268,-2.933 C 1.225,-3.224 1.195,-3.498 1.283,-3.741 l -0.742,0.109 c -0.057,0.199 -0.07,0.375 -0.004,0.817 l 0.15,1.033 c 0.11,0.743 -0.203,1.029 -0.814,1.119 l -0.518,0.076 -0.412,-2.81 -0.732,0.107 0.967,6.58 z"
             style="fill:#ffffff;fill-opacity:1;fill-rule:nonzero;stroke:none"
             id="path278"
             inkscape:connector-curvature="0" /></g><g
           id="g280"
           transform="translate(75.9995,107.6357)"><path
             d="m 0,0 c 0.582,-0.085 0.957,0.052 1.062,0.766 l 0.094,0.63 C 1.242,1.987 1.072,2.33 0.527,2.41 L -0.187,2.515 -0.545,0.08 Z M 0.645,3.074 C 1.678,2.922 2.033,2.333 1.889,1.354 L 1.811,0.819 C 1.703,0.095 1.383,-0.318 0.793,-0.415 1.369,-0.681 1.523,-1.203 1.418,-1.908 L 1.268,-2.933 C 1.225,-3.224 1.195,-3.498 1.283,-3.741 l -0.742,0.109 c -0.057,0.199 -0.07,0.375 -0.004,0.817 l 0.15,1.033 c 0.11,0.743 -0.203,1.029 -0.814,1.119 l -0.518,0.076 -0.412,-2.81 -0.732,0.107 0.967,6.58 z"
             style="fill:none;stroke:#ffffff;stroke-width:0.085;stroke-linecap:butt;stroke-linejoin:miter;stroke-miterlimit:10;stroke-dasharray:none;stroke-opacity:1"
             id="path282"
             inkscape:connector-curvature="0" /></g><g
           id="g284"
           transform="translate(88.8003,105.0615)"><path
             d="m 0,0 -0.08,-0.162 -0.631,0.308 0.096,0.197 c 0.261,0.537 0.211,0.953 -0.268,1.187 -0.476,0.233 -0.836,0.017 -1.094,-0.512 -0.654,-1.341 1.29,-2.449 0.469,-4.13 -0.441,-0.905 -1.164,-1.282 -2.078,-0.836 -0.914,0.445 -1.053,1.243 -0.611,2.148 l 0.166,0.342 0.623,-0.305 -0.184,-0.376 c -0.262,-0.538 -0.193,-0.962 0.285,-1.195 0.477,-0.233 0.854,-0.025 1.116,0.513 0.65,1.332 -1.286,2.434 -0.465,4.117 0.451,0.922 1.156,1.285 2.052,0.848 C 0.303,1.702 0.441,0.905 0,0"
             style="fill:#ffffff;fill-opacity:1;fill-rule:nonzero;stroke:none"
             id="path286"
             inkscape:connector-curvature="0" /></g><g
           id="g288"
           transform="translate(88.8003,105.0615)"><path
             d="m 0,0 -0.08,-0.162 -0.631,0.308 0.096,0.197 c 0.261,0.537 0.211,0.953 -0.268,1.187 -0.476,0.233 -0.836,0.017 -1.094,-0.512 -0.654,-1.341 1.29,-2.449 0.469,-4.13 -0.441,-0.905 -1.164,-1.282 -2.078,-0.836 -0.914,0.445 -1.053,1.243 -0.611,2.148 l 0.166,0.342 0.623,-0.305 -0.184,-0.376 c -0.262,-0.538 -0.193,-0.962 0.285,-1.195 0.477,-0.233 0.854,-0.025 1.116,0.513 0.65,1.332 -1.286,2.434 -0.465,4.117 0.451,0.922 1.156,1.285 2.052,0.848 C 0.303,1.702 0.441,0.905 0,0 Z"
             style="fill:none;stroke:#ffffff;stroke-width:0.085;stroke-linecap:butt;stroke-linejoin:miter;stroke-miterlimit:10;stroke-dasharray:none;stroke-opacity:1"
             id="path290"
             inkscape:connector-curvature="0" /></g><g
           id="g292"
           transform="translate(97.3804,100.9053)"><path
             d="m 0,0 -4.422,-4.97 -0.553,0.493 4.422,4.97 z"
             style="fill:#ffffff;fill-opacity:1;fill-rule:nonzero;stroke:none"
             id="path294"
             inkscape:connector-curvature="0" /></g><g
           id="g296"
           transform="translate(97.3804,100.9053)"><path
             d="m 0,0 -4.422,-4.97 -0.553,0.493 4.422,4.97 z"
             style="fill:none;stroke:#ffffff;stroke-width:0.085;stroke-linecap:butt;stroke-linejoin:miter;stroke-miterlimit:10;stroke-dasharray:none;stroke-opacity:1"
             id="path298"
             inkscape:connector-curvature="0" /></g><g
           id="g300"
           transform="translate(98.2769,89.7285)"><path
             d="M 0,0 5.023,3.236 4.359,4.268 4.928,4.633 6.656,1.948 6.09,1.583 5.426,2.613 0.4,-0.623 Z"
             style="fill:#ffffff;fill-opacity:1;fill-rule:nonzero;stroke:none"
             id="path302"
             inkscape:connector-curvature="0" /></g><g
           id="g304"
           transform="translate(98.2769,89.7285)"><path
             d="M 0,0 5.023,3.236 4.359,4.268 4.928,4.633 6.656,1.948 6.09,1.583 5.426,2.613 0.4,-0.623 Z"
             style="fill:none;stroke:#ffffff;stroke-width:0.085;stroke-linecap:butt;stroke-linejoin:miter;stroke-miterlimit:10;stroke-dasharray:none;stroke-opacity:1"
             id="path306"
             inkscape:connector-curvature="0" /></g><g
           id="g308"
           transform="translate(110.4702,81.6523)"><path
             d="m 0,0 -1.18,0.59 -0.136,0.494 1.119,-0.379 z m -4.123,-1.203 -0.641,-0.179 -0.433,1.566 -2.28,-0.633 0.534,-1.922 -0.651,-0.181 -0.73,2.636 6.406,1.779 0.732,-2.636 -0.65,-0.18 -0.533,1.922 -2.188,-0.608 z"
             style="fill:#ffffff;fill-opacity:1;fill-rule:nonzero;stroke:none"
             id="path310"
             inkscape:connector-curvature="0" /></g><g
           id="g312"
           transform="translate(110.4702,81.6523)"><path
             d="m 0,0 -1.18,0.59 -0.136,0.494 1.119,-0.379 z m -4.123,-1.203 -0.641,-0.179 -0.433,1.566 -2.28,-0.633 0.534,-1.922 -0.651,-0.181 -0.73,2.636 6.406,1.779 0.732,-2.636 -0.65,-0.18 -0.533,1.922 -2.188,-0.608 z"
             style="fill:none;stroke:#ffffff;stroke-width:0.085;stroke-linecap:butt;stroke-linejoin:miter;stroke-miterlimit:10;stroke-dasharray:none;stroke-opacity:1"
             id="path314"
             inkscape:connector-curvature="0" /></g><g
           id="g316"
           transform="translate(105.7573,61.6465)"><path
             d="m 0,0 c 0.139,0.572 0.037,0.959 -0.666,1.129 l -0.617,0.15 C -1.865,1.42 -2.221,1.281 -2.352,0.744 l -0.169,-0.701 2.392,-0.578 z m -3.002,0.922 c 0.244,1.015 0.865,1.316 1.826,1.084 L -0.65,1.879 C 0.061,1.705 0.443,1.35 0.486,0.754 0.803,1.303 1.338,1.406 2.029,1.24 L 3.037,0.996 C 3.322,0.928 3.594,0.871 3.844,0.937 L 3.668,0.209 C 3.463,0.17 3.287,0.174 2.854,0.279 L 1.838,0.523 C 1.107,0.701 0.795,0.414 0.648,-0.186 L 0.527,-0.693 3.287,-1.361 3.113,-2.082 -3.352,-0.52 Z"
             style="fill:#ffffff;fill-opacity:1;fill-rule:nonzero;stroke:none"
             id="path318"
             inkscape:connector-curvature="0" /></g><g
           id="g320"
           transform="translate(105.7573,61.6465)"><path
             d="m 0,0 c 0.139,0.572 0.037,0.959 -0.666,1.129 l -0.617,0.15 C -1.865,1.42 -2.221,1.281 -2.352,0.744 l -0.169,-0.701 2.392,-0.578 z m -3.002,0.922 c 0.244,1.015 0.865,1.316 1.826,1.084 L -0.65,1.879 C 0.061,1.705 0.443,1.35 0.486,0.754 0.803,1.303 1.338,1.406 2.029,1.24 L 3.037,0.996 C 3.322,0.928 3.594,0.871 3.844,0.937 L 3.668,0.209 C 3.463,0.17 3.287,0.174 2.854,0.279 L 1.838,0.523 C 1.107,0.701 0.795,0.414 0.648,-0.186 L 0.527,-0.693 3.287,-1.361 3.113,-2.082 -3.352,-0.52 Z"
             style="fill:none;stroke:#ffffff;stroke-width:0.085;stroke-linecap:butt;stroke-linejoin:miter;stroke-miterlimit:10;stroke-dasharray:none;stroke-opacity:1"
             id="path322"
             inkscape:connector-curvature="0" /></g><g
           id="g324"
           transform="translate(102.6401,53.873)"><path
             d="m 0,0 0.582,-0.322 -0.789,-1.422 2.068,-1.149 0.969,1.745 0.59,-0.327 -1.328,-2.392 -5.815,3.23 1.328,2.393 0.59,-0.328 -0.968,-1.744 1.984,-1.104 z"
             style="fill:#ffffff;fill-opacity:1;fill-rule:nonzero;stroke:none"
             id="path326"
             inkscape:connector-curvature="0" /></g><g
           id="g328"
           transform="translate(102.6401,53.873)"><path
             d="m 0,0 0.582,-0.322 -0.789,-1.422 2.068,-1.149 0.969,1.745 0.59,-0.327 -1.328,-2.392 -5.815,3.23 1.328,2.393 0.59,-0.328 -0.968,-1.744 1.984,-1.104 z"
             style="fill:none;stroke:#ffffff;stroke-width:0.085;stroke-linecap:butt;stroke-linejoin:miter;stroke-miterlimit:10;stroke-dasharray:none;stroke-opacity:1"
             id="path330"
             inkscape:connector-curvature="0" /></g><g
           id="g332"
           transform="translate(95.3003,48.4121)"><path
             d="M 0,0 4.902,-4.494 4.4,-5.041 -0.5,-0.545 Z"
             style="fill:#ffffff;fill-opacity:1;fill-rule:nonzero;stroke:none"
             id="path334"
             inkscape:connector-curvature="0" /></g><g
           id="g336"
           transform="translate(95.3003,48.4121)"><path
             d="M 0,0 4.902,-4.494 4.4,-5.041 -0.5,-0.545 Z"
             style="fill:none;stroke:#ffffff;stroke-width:0.085;stroke-linecap:butt;stroke-linejoin:miter;stroke-miterlimit:10;stroke-dasharray:none;stroke-opacity:1"
             id="path338"
             inkscape:connector-curvature="0" /></g><g
           id="g340"
           transform="translate(92.019,36.9727)"><path
             d="M 0,0 -3.74,5.5 -3.127,5.916 0.234,0.975 1.807,2.043 2.186,1.484 Z"
             style="fill:#ffffff;fill-opacity:1;fill-rule:nonzero;stroke:none"
             id="path342"
             inkscape:connector-curvature="0" /></g><g
           id="g344"
           transform="translate(92.019,36.9727)"><path
             d="M 0,0 -3.74,5.5 -3.127,5.916 0.234,0.975 1.807,2.043 2.186,1.484 Z"
             style="fill:none;stroke:#ffffff;stroke-width:0.085;stroke-linecap:butt;stroke-linejoin:miter;stroke-miterlimit:10;stroke-dasharray:none;stroke-opacity:1"
             id="path346"
             inkscape:connector-curvature="0" /></g><g
           id="g348"
           transform="translate(82.8394,32.6816)"><path
             d="M 0,0 -2.211,6.271 -1.512,6.518 0.475,0.883 2.268,1.514 2.492,0.877 Z"
             style="fill:#ffffff;fill-opacity:1;fill-rule:nonzero;stroke:none"
             id="path350"
             inkscape:connector-curvature="0" /></g><g
           id="g352"
           transform="translate(82.8394,32.6816)"><path
             d="M 0,0 -2.211,6.271 -1.512,6.518 0.475,0.883 2.268,1.514 2.492,0.877 Z"
             style="fill:none;stroke:#ffffff;stroke-width:0.085;stroke-linecap:butt;stroke-linejoin:miter;stroke-miterlimit:10;stroke-dasharray:none;stroke-opacity:1"
             id="path354"
             inkscape:connector-curvature="0" /></g><g
           id="g356"
           transform="translate(74.7026,34.7422)"><path
             d="m 0,0 0.051,-0.662 -1.619,-0.127 0.181,-2.357 1.991,0.154 0.052,-0.672 -2.728,-0.213 -0.514,6.631 2.727,0.211 0.052,-0.672 -1.988,-0.154 0.174,-2.264 z"
             style="fill:#ffffff;fill-opacity:1;fill-rule:nonzero;stroke:none"
             id="path358"
             inkscape:connector-curvature="0" /></g><g
           id="g360"
           transform="translate(74.7026,34.7422)"><path
             d="m 0,0 0.051,-0.662 -1.619,-0.127 0.181,-2.357 1.991,0.154 0.052,-0.672 -2.728,-0.213 -0.514,6.631 2.727,0.211 0.052,-0.672 -1.988,-0.154 0.174,-2.264 z"
             style="fill:none;stroke:#ffffff;stroke-width:0.085;stroke-linecap:butt;stroke-linejoin:miter;stroke-miterlimit:10;stroke-dasharray:none;stroke-opacity:1"
             id="path362"
             inkscape:connector-curvature="0" /></g><g
           id="g364"
           transform="translate(64.146,34.7598)"><path
             d="M 0,0 C 0.541,-0.102 0.85,0.102 0.969,0.727 L 1.131,1.594 C 1.244,2.191 1.084,2.531 0.553,2.631 L -0.148,2.764 -0.645,0.121 Z M 0.678,3.295 C 1.703,3.102 2.029,2.412 1.844,1.422 L 1.695,0.639 C 1.5,-0.398 0.914,-0.85 -0.123,-0.654 l -0.645,0.121 -0.484,-2.576 -0.727,0.136 1.227,6.536 z"
             style="fill:#ffffff;fill-opacity:1;fill-rule:nonzero;stroke:none"
             id="path366"
             inkscape:connector-curvature="0" /></g><g
           id="g368"
           transform="translate(64.146,34.7598)"><path
             d="M 0,0 C 0.541,-0.102 0.85,0.102 0.969,0.727 L 1.131,1.594 C 1.244,2.191 1.084,2.531 0.553,2.631 L -0.148,2.764 -0.645,0.121 Z M 0.678,3.295 C 1.703,3.102 2.029,2.412 1.844,1.422 L 1.695,0.639 C 1.5,-0.398 0.914,-0.85 -0.123,-0.654 l -0.645,0.121 -0.484,-2.576 -0.727,0.136 1.227,6.536 z"
             style="fill:none;stroke:#ffffff;stroke-width:0.085;stroke-linecap:butt;stroke-linejoin:miter;stroke-miterlimit:10;stroke-dasharray:none;stroke-opacity:1"
             id="path370"
             inkscape:connector-curvature="0" /></g><g
           id="g372"
           transform="translate(53.2554,34.9863)"><path
             d="M 0,0 2.621,5.371 1.52,5.908 1.814,6.514 4.684,5.115 4.389,4.508 3.287,5.045 0.666,-0.326 Z"
             style="fill:#ffffff;fill-opacity:1;fill-rule:nonzero;stroke:none"
             id="path374"
             inkscape:connector-curvature="0" /></g><g
           id="g376"
           transform="translate(53.2554,34.9863)"><path
             d="M 0,0 2.621,5.371 1.52,5.908 1.814,6.514 4.684,5.115 4.389,4.508 3.287,5.045 0.666,-0.326 Z"
             style="fill:none;stroke:#ffffff;stroke-width:0.085;stroke-linecap:butt;stroke-linejoin:miter;stroke-miterlimit:10;stroke-dasharray:none;stroke-opacity:1"
             id="path378"
             inkscape:connector-curvature="0" /></g><g
           id="g380"
           transform="translate(44.0601,41.3359)"><path
             d="M 0,0 -0.498,0.441 3.906,5.424 4.611,4.801 2.58,0.18 5.764,3.781 6.256,3.348 1.852,-1.635 1.275,-1.125 3.561,4.029 Z"
             style="fill:#ffffff;fill-opacity:1;fill-rule:nonzero;stroke:none"
             id="path382"
             inkscape:connector-curvature="0" /></g><g
           id="g384"
           transform="translate(44.0601,41.3359)"><path
             d="M 0,0 -0.498,0.441 3.906,5.424 4.611,4.801 2.58,0.18 5.764,3.781 6.256,3.348 1.852,-1.635 1.275,-1.125 3.561,4.029 Z"
             style="fill:none;stroke:#ffffff;stroke-width:0.085;stroke-linecap:butt;stroke-linejoin:miter;stroke-miterlimit:10;stroke-dasharray:none;stroke-opacity:1"
             id="path386"
             inkscape:connector-curvature="0" /></g><g
           id="g388"
           transform="translate(38.5874,50.4395)"><path
             d="m 0,0 c -0.512,-0.33 -0.668,-0.736 -0.379,-1.184 0.293,-0.455 0.723,-0.472 1.234,-0.142 L 3.809,0.582 C 4.312,0.908 4.48,1.311 4.187,1.766 3.898,2.213 3.455,2.232 2.953,1.908 Z M 2.523,2.502 C 3.379,3.053 4.203,2.986 4.754,2.131 5.311,1.27 5.033,0.49 4.18,-0.061 L 1.289,-1.928 c -0.846,-0.547 -1.678,-0.484 -2.234,0.379 -0.553,0.854 -0.268,1.637 0.58,2.184 z"
             style="fill:#ffffff;fill-opacity:1;fill-rule:nonzero;stroke:none"
             id="path390"
             inkscape:connector-curvature="0" /></g><g
           id="g392"
           transform="translate(38.5874,50.4395)"><path
             d="m 0,0 c -0.512,-0.33 -0.668,-0.736 -0.379,-1.184 0.293,-0.455 0.723,-0.472 1.234,-0.142 L 3.809,0.582 C 4.312,0.908 4.48,1.311 4.187,1.766 3.898,2.213 3.455,2.232 2.953,1.908 Z M 2.523,2.502 C 3.379,3.053 4.203,2.986 4.754,2.131 5.311,1.27 5.033,0.49 4.18,-0.061 L 1.289,-1.928 c -0.846,-0.547 -1.678,-0.484 -2.234,0.379 -0.553,0.854 -0.268,1.637 0.58,2.184 z"
             style="fill:none;stroke:#ffffff;stroke-width:0.085;stroke-linecap:butt;stroke-linejoin:miter;stroke-miterlimit:10;stroke-dasharray:none;stroke-opacity:1"
             id="path394"
             inkscape:connector-curvature="0" /></g><g
           id="g396"
           transform="translate(33.0679,58.9746)"><path
             d="M 0,0 -0.197,0.684 4.578,3.215 -0.514,1.738 -0.693,2.359 5.693,4.209 5.98,3.215 1.186,0.689 6.578,1.154 6.867,0.158 0.48,-1.691 0.285,-1.016 5.422,0.473 Z"
             style="fill:#ffffff;fill-opacity:1;fill-rule:nonzero;stroke:none"
             id="path398"
             inkscape:connector-curvature="0" /></g><g
           id="g400"
           transform="translate(33.0679,58.9746)"><path
             d="M 0,0 -0.197,0.684 4.578,3.215 -0.514,1.738 -0.693,2.359 5.693,4.209 5.98,3.215 1.186,0.689 6.578,1.154 6.867,0.158 0.48,-1.691 0.285,-1.016 5.422,0.473 Z"
             style="fill:none;stroke:#ffffff;stroke-width:0.085;stroke-linecap:butt;stroke-linejoin:miter;stroke-miterlimit:10;stroke-dasharray:none;stroke-opacity:1"
             id="path402"
             inkscape:connector-curvature="0" /></g><g
           id="g404"
           transform="translate(35.0366,70.8672)"><path
             d="m 0,0 c 0,-0.518 -0.418,-0.937 -0.936,-0.937 -0.515,0 -0.933,0.419 -0.933,0.937 0,0.516 0.418,0.936 0.933,0.936 C -0.418,0.936 0,0.516 0,0"
             style="fill:#ffffff;fill-opacity:1;fill-rule:nonzero;stroke:none"
             id="path406"
             inkscape:connector-curvature="0" /></g><g
           id="g408"
           transform="translate(108.6147,70.8672)"><path
             d="m 0,0 c 0,-0.518 -0.418,-0.937 -0.937,-0.937 -0.516,0 -0.934,0.419 -0.934,0.937 0,0.516 0.418,0.936 0.934,0.936 C -0.418,0.936 0,0.516 0,0"
             style="fill:#ffffff;fill-opacity:1;fill-rule:nonzero;stroke:none"
             id="path410"
             inkscape:connector-curvature="0" /></g></g></g></g></svg>